<svg width="224" height="60" viewBox="0 0 224 60" fill="none" xmlns="http://www.w3.org/2000/svg">
<mask id="mask0_364_954" style="mask-type:luminance" maskUnits="userSpaceOnUse" x="14" y="15" width="34" height="32">
<path d="M47.0877 15.4883H14.2002V46.3883H47.0877V15.4883Z" fill="white"/>
</mask>
<g mask="url(#mask0_364_954)">
<path d="M43.4125 44.8133H40.6375C40.4875 44.8133 40.3375 44.7383 40.2625 44.6258L30.55 33.1508H23.6875V44.3258C23.6875 44.5883 23.4625 44.8133 23.2 44.8133H21.3625C21.1 44.8133 20.875 44.5883 20.875 44.3258C20.875 44.0633 21.1 43.8383 21.3625 43.8383H22.7125V32.6633C22.7125 32.4008 22.9375 32.1758 23.2 32.1758H30.775C30.925 32.1758 31.075 32.2508 31.15 32.3633L40.8625 43.8758H43.4125C43.675 43.8758 43.9 44.1008 43.9 44.3633C43.9 44.5883 43.675 44.8133 43.4125 44.8133Z" fill="white"/>
</g>
<mask id="mask1_364_954" style="mask-type:luminance" maskUnits="userSpaceOnUse" x="14" y="15" width="34" height="32">
<path d="M47.0877 15.4883H14.2002V46.3883H47.0877V15.4883Z" fill="white"/>
</mask>
<g mask="url(#mask1_364_954)">
<path d="M23.2004 15.4883C22.6004 15.4883 22.1129 15.8633 21.9254 16.3508H19.0754C18.8129 16.3508 18.5879 16.5758 18.5879 16.8383V27.9758H17.1254C16.9379 27.4508 16.4129 27.1133 15.8504 27.1133C15.1004 27.1133 14.4629 27.7133 14.4629 28.5008C14.4629 29.2508 15.0629 29.8883 15.8504 29.8883C16.4504 29.8883 16.9379 29.5133 17.1254 29.0258H19.0754C19.3379 29.0258 19.5629 28.8008 19.5629 28.5383V17.3633H21.9254C22.1129 17.8883 22.6379 18.2258 23.2004 18.2258C23.9504 18.2258 24.5879 17.6258 24.5879 16.8383C24.5504 16.1258 23.9504 15.4883 23.2004 15.4883ZM15.8504 29.1008C15.5129 29.1008 15.2504 28.8383 15.2504 28.5008C15.2504 28.1633 15.5129 27.9008 15.8504 27.9008C16.1879 27.9008 16.4504 28.1633 16.4504 28.5008C16.4129 28.8383 16.1504 29.1008 15.8504 29.1008ZM23.2004 17.4758C22.8629 17.4758 22.6004 17.2133 22.6004 16.8758C22.6004 16.5383 22.8629 16.2758 23.2004 16.2758C23.5379 16.2758 23.8004 16.5383 23.8004 16.8758C23.7629 17.2133 23.5004 17.4758 23.2004 17.4758Z" fill="white"/>
</g>
<mask id="mask2_364_954" style="mask-type:luminance" maskUnits="userSpaceOnUse" x="14" y="15" width="34" height="32">
<path d="M47.0877 15.4883H14.2002V46.3883H47.0877V15.4883Z" fill="white"/>
</mask>
<g mask="url(#mask2_364_954)">
<path d="M19.4879 43.05V32.6625C19.4879 32.4 19.2629 32.175 19.0004 32.175H17.1254C16.9379 31.65 16.4129 31.3125 15.8504 31.3125C15.1004 31.3125 14.4629 31.9125 14.4629 32.7C14.4629 33.45 15.0629 34.0875 15.8504 34.0875C16.4504 34.0875 16.9379 33.7125 17.1254 33.225H18.5129V43.125C17.9879 43.3125 17.6504 43.8375 17.6504 44.4C17.6504 45.15 18.2504 45.7875 19.0379 45.7875C19.8254 45.7875 20.4254 45.1875 20.4254 44.4C20.3879 43.725 20.0129 43.2375 19.4879 43.05ZM15.8504 33.225C15.5129 33.225 15.2504 32.9625 15.2504 32.625C15.2504 32.2875 15.5129 32.025 15.8504 32.025C16.1879 32.025 16.4504 32.2875 16.4504 32.625C16.4504 32.9625 16.1504 33.225 15.8504 33.225ZM19.0004 44.925C18.6629 44.925 18.4004 44.6625 18.4004 44.325C18.4004 43.9875 18.6629 43.725 19.0004 43.725C19.3379 43.725 19.6004 43.9875 19.6004 44.325C19.5629 44.6625 19.3379 44.925 19.0004 44.925Z" fill="white"/>
</g>
<mask id="mask3_364_954" style="mask-type:luminance" maskUnits="userSpaceOnUse" x="14" y="15" width="34" height="32">
<path d="M47.0877 15.4883H14.2002V46.3883H47.0877V15.4883Z" fill="white"/>
</mask>
<g mask="url(#mask3_364_954)">
<path d="M45.4379 15.4883C44.8754 15.4883 44.3879 15.8258 44.1629 16.3133H40.6004C40.4504 16.3133 40.3004 16.3883 40.2254 16.5008L30.5879 28.0508H23.6879V19.3508C23.6879 19.0883 23.4629 18.8633 23.2004 18.8633C22.9379 18.8633 22.7129 19.0883 22.7129 19.3508V28.5383C22.7129 28.8008 22.9379 29.0258 23.2004 29.0258H30.8504C31.0004 29.0258 31.1504 28.9508 31.2254 28.8383L40.8629 17.3258H44.1629C44.3504 17.8508 44.8754 18.2633 45.4754 18.2633C46.2254 18.2633 46.8629 17.6633 46.8629 16.8758C46.8254 16.1258 46.1879 15.4883 45.4379 15.4883ZM45.4379 17.4758C45.1004 17.4758 44.8379 17.2133 44.8379 16.8758C44.8379 16.5383 45.1004 16.2758 45.4379 16.2758C45.7754 16.2758 46.0379 16.5383 46.0379 16.8758C46.0379 17.2133 45.7754 17.4758 45.4379 17.4758Z" fill="white"/>
</g>
<mask id="mask4_364_954" style="mask-type:luminance" maskUnits="userSpaceOnUse" x="14" y="15" width="34" height="32">
<path d="M47.0877 15.4883H14.2002V46.3883H47.0877V15.4883Z" fill="white"/>
</mask>
<g mask="url(#mask4_364_954)">
<path d="M45.7379 42.7495C45.5879 42.7495 45.4379 42.787 45.3254 42.8245L35.1254 30.5995L44.6129 19.312C44.8004 19.087 44.7629 18.787 44.5379 18.5995C44.3129 18.412 44.0129 18.4495 43.8254 18.6745C43.8254 18.6745 42.7754 19.912 41.3879 21.562C38.5004 25.012 34.0754 30.262 34.0754 30.262C33.9254 30.4495 33.9254 30.712 34.0754 30.8995L44.5379 43.4245C44.4254 43.612 44.3504 43.8745 44.3504 44.0995C44.3504 44.8495 44.9504 45.487 45.7379 45.487C46.4879 45.487 47.1254 44.887 47.1254 44.0995C47.1254 43.3495 46.4879 42.7495 45.7379 42.7495ZM45.7379 44.6995C45.4004 44.6995 45.1379 44.437 45.1379 44.0995C45.1379 43.762 45.4004 43.4995 45.7379 43.4995C46.0754 43.4995 46.3379 43.762 46.3379 44.0995C46.3379 44.437 46.0754 44.6995 45.7379 44.6995Z" fill="white"/>
</g>
<mask id="mask5_364_954" style="mask-type:luminance" maskUnits="userSpaceOnUse" x="14" y="15" width="195" height="32">
<path d="M208.038 15.4883H14.2002V46.3883H208.038V15.4883Z" fill="white"/>
</mask>
<g mask="url(#mask5_364_954)">
<path d="M208.075 35.0992V33.6742C208.075 31.1617 207.438 29.0617 206.2 27.3367C204.963 25.6117 203.275 24.7117 201.138 24.5992V26.2492C202.713 26.4367 203.95 27.1492 204.85 28.4242C205.75 29.6617 206.238 31.4242 206.238 33.6367H195.738V35.1367H208.075V35.0992ZM206.65 43.1617L205.638 41.8492C204.175 42.9742 202.525 43.4992 200.65 43.4992C198.175 43.4992 196.45 42.7492 195.438 41.2117C194.425 39.6742 193.938 37.5367 193.938 34.7617C193.938 32.0992 194.425 30.0367 195.363 28.6117C196.338 27.1867 197.65 26.3617 199.338 26.1742V24.5617C197.35 24.6742 195.625 25.5742 194.2 27.2242C192.775 28.9117 192.063 31.4617 192.063 34.8742C192.063 41.6617 194.913 45.0367 200.575 45.0367C203.013 45.0742 205.038 44.4367 206.65 43.1617ZM189.963 35.0992V33.6742C189.963 31.1617 189.325 29.0617 188.088 27.3367C186.85 25.6117 185.163 24.7117 183.025 24.5992V26.2492C184.6 26.4367 185.838 27.1492 186.738 28.4242C187.638 29.6617 188.125 31.4242 188.125 33.6367H177.625V35.1367L189.963 35.0992ZM188.538 43.1617L187.525 41.8492C186.063 42.9742 184.413 43.4992 182.538 43.4992C180.063 43.4992 178.338 42.7492 177.325 41.2117C176.313 39.6742 175.825 37.5367 175.825 34.7617C175.825 32.0992 176.313 30.0367 177.25 28.6117C178.225 27.1867 179.538 26.3617 181.225 26.1742V24.5617C179.238 24.6742 177.513 25.5742 176.088 27.2242C174.663 28.9117 173.95 31.4617 173.95 34.8742C173.95 41.6617 176.8 45.0367 182.463 45.0367C184.9 45.0742 186.925 44.4367 188.538 43.1617ZM166.525 39.4492V44.8492H171.888V39.4492H166.525ZM144.4 16.6492V44.8117H149.125V16.6492H144.4ZM163.863 44.8117V40.6117H150.55V44.8117H163.863ZM160.713 32.2867V28.2367H150.55V32.2867H160.713ZM163.3 20.8492V16.6492H150.55V20.8492H163.3ZM123.738 19.6867C122.088 21.6742 121.263 24.1117 121.263 26.9992V34.5367C121.263 37.6867 122.125 40.2367 123.85 42.1867C125.575 44.0992 128.163 45.0742 131.65 45.0742C134.05 45.0742 136.113 44.5117 137.838 43.3867C139.563 42.2617 140.763 40.6867 141.513 38.6242L137.125 36.7867C136.713 37.9867 136.038 38.9617 135.063 39.6742C134.088 40.3867 132.963 40.7242 131.688 40.7242C129.7 40.7242 128.238 40.1242 127.338 38.9617C126.438 37.7992 125.988 36.2992 125.988 34.4992V26.9617C125.988 25.3117 126.363 23.9242 127.15 22.7992C127.938 21.6742 129.138 20.9992 130.863 20.8117V16.4242C127.788 16.6117 125.425 17.6617 123.738 19.6867ZM137.013 24.5617L141.288 22.7242C140.575 20.8492 139.45 19.3117 137.913 18.2242C136.375 17.0992 134.5 16.4992 132.25 16.3867V20.8117C134.613 21.0367 136.188 22.2742 137.013 24.5617ZM111.1 16.6492H106.563L96.4754 44.8117H101.463L108.738 22.6492H108.888L112.45 33.3742H117.1L111.1 16.6492ZM104.95 38.7367H114.175L116.238 44.8117H121.225L117.588 34.7242H106.263L104.95 38.7367ZM90.2504 20.8117C91.7129 20.8117 92.8754 21.1867 93.7379 21.9367C94.6004 22.6867 95.0504 23.7742 95.0504 25.2742C95.0504 26.5117 94.6754 27.5617 93.8879 28.4242C93.1004 29.2867 91.9754 29.6992 90.4379 29.6992H85.5629V33.8617H91.0754C93.7379 33.8617 95.8379 33.0367 97.4879 31.3492C99.1004 29.6617 99.9254 27.6742 99.9254 25.3867C99.9254 22.5367 99.0629 20.3992 97.3379 18.8992C95.6129 17.3992 93.4004 16.6492 90.6629 16.6492H85.6004V20.8117H90.2504ZM79.3754 16.6492V44.8117H84.1004V16.6492H79.3754ZM73.9379 42.6367C75.7754 41.1367 76.6754 39.1117 76.6754 36.5992C76.6754 35.0617 76.3004 33.7492 75.5129 32.6617C74.7254 31.5742 73.7504 30.7492 72.5504 30.2242C71.3504 29.6992 70.0754 29.1742 68.6879 28.7242C67.3004 28.2742 66.0254 27.8992 64.8254 27.5992C63.6254 27.2992 62.6504 26.8492 61.8629 26.2867C61.0754 25.7242 60.7004 25.0117 60.7004 24.1867C60.7004 22.0492 62.2004 20.9242 65.2379 20.7367V16.3867C62.7254 16.4992 60.5504 17.2492 58.7504 18.7117C56.9504 20.1367 56.0504 22.0867 56.0504 24.5242C56.0504 26.2492 56.5754 27.6742 57.6629 28.7617C58.7504 29.8867 60.0629 30.6742 61.6004 31.1617C63.1379 31.6492 64.6754 32.0992 66.2129 32.5117C67.7504 32.9242 69.0629 33.4492 70.1504 34.1617C71.2379 34.8367 71.7629 35.7742 71.7629 36.8992C71.7629 38.0617 71.2754 38.9992 70.3379 39.6742C69.3629 40.3867 68.1254 40.7617 66.5504 40.7992V45.0367C69.6629 44.9617 72.1004 44.1367 73.9379 42.6367ZM57.5129 37.5742L54.7754 41.2117C57.5129 43.5742 60.9629 44.8867 65.1629 45.0742V40.7992C62.0879 40.5742 59.5379 39.4867 57.5129 37.5742ZM73.1129 22.8367L75.3254 19.1242C73.0754 17.4367 70.1879 16.4992 66.7004 16.3867V20.7742C68.9879 20.8492 71.0879 21.5617 73.1129 22.8367Z" fill="white"/>
</g>
<path d="M38.5752 31.125L48.2127 27.75L47.8377 30.8625L55.6752 29.5125L46.0002 33.2625L46.3752 30.15L38.5752 31.125Z" fill="white"/>
</svg>
