<svg width="66" height="59" viewBox="0 0 66 59" fill="none" xmlns="http://www.w3.org/2000/svg">
<path d="M17.5506 54.1084C17.5506 54.8678 17.3537 55.5146 16.96 56.0631C16.5662 56.6115 16.0318 57.0193 15.3428 57.3006C14.6678 57.5818 13.9225 57.7225 13.1068 57.7225C12.1506 57.7225 11.3209 57.61 10.6178 57.385C9.91465 57.16 9.28184 56.7662 8.7334 56.2037L10.5475 54.3896C10.8287 54.6709 11.2084 54.8818 11.6725 55.0084C12.1365 55.135 12.6146 55.2053 13.1209 55.2053C14.2178 55.2053 14.7662 54.8537 14.7662 54.1646C14.7662 53.8693 14.6959 53.6443 14.5412 53.4896C14.3865 53.335 14.1334 53.2225 13.7818 53.1803L12.3896 52.9834C11.3631 52.8428 10.6037 52.5053 10.0693 51.9709C9.54902 51.4225 9.28184 50.6631 9.28184 49.6506C9.28184 48.9475 9.45059 48.3287 9.78809 47.7803C10.1256 47.2318 10.6178 46.7959 11.2506 46.4865C11.8834 46.1771 12.6287 46.0225 13.4865 46.0225C14.3303 46.0225 15.0756 46.135 15.7084 46.3459C16.3412 46.5709 16.9037 46.9084 17.3678 47.3865L15.5959 49.1584C15.3006 48.8631 14.9771 48.6803 14.6396 48.5959C14.3021 48.5115 13.8803 48.4834 13.4021 48.4834C12.9521 48.4834 12.6006 48.5959 12.3615 48.8068C12.1225 49.0178 12.01 49.2709 12.01 49.5521C12.01 49.7631 12.0803 49.9318 12.235 50.0865C12.4178 50.2693 12.6709 50.3818 13.0225 50.424L14.4146 50.6068C15.4271 50.7475 16.1865 51.0709 16.6787 51.5631C16.974 51.8584 17.199 52.21 17.3256 52.6178C17.4803 53.0396 17.5506 53.5318 17.5506 54.1084Z" fill="white"/>
<path d="M27.4366 49.8189C27.4366 50.4658 27.2819 51.0705 26.9726 51.633C26.6632 52.1955 26.2132 52.6455 25.6226 52.9971C25.0319 53.3486 24.3288 53.5174 23.4991 53.5174H21.7694V57.6236H18.9429V46.1064H23.4991C24.3288 46.1064 25.0319 46.2752 25.6226 46.6268C26.2132 46.9783 26.6632 47.4283 26.9726 47.9908C27.2819 48.5533 27.4366 49.158 27.4366 49.8189ZM24.596 49.8189C24.596 49.608 24.5538 49.4252 24.4554 49.2424C24.3569 49.0596 24.2163 48.9189 24.0335 48.8205C23.8507 48.708 23.6257 48.6658 23.3866 48.6658H21.7835V50.9861H23.3866C23.6397 50.9861 23.8507 50.9299 24.0335 50.8314C24.2163 50.7189 24.3569 50.5783 24.4554 50.4096C24.5538 50.2127 24.596 50.0299 24.596 49.8189Z" fill="white"/>
<path d="M37.4071 57.6236H34.454L33.9196 55.908H30.3759L29.8134 57.6236H26.8462L31.0368 46.1064H33.2306L37.4071 57.6236ZM33.1743 53.5455L32.204 50.4799L31.1634 53.5455H33.1743Z" fill="white"/>
<path d="M46.4209 53.9672C46.3225 54.5719 46.1396 55.1203 45.8865 55.6125C45.6193 56.0906 45.2959 56.4844 44.9162 56.8078C44.5225 57.1172 44.1006 57.3563 43.6084 57.4969C43.1303 57.6516 42.61 57.7219 42.0615 57.7219C40.7818 57.7219 39.7131 57.2859 38.8693 56.4281C38.3631 55.9219 38.0396 55.3453 37.9131 54.7125C37.7725 54.0656 37.7021 53.25 37.7021 52.2656V51.8719V51.4781C37.7021 50.4937 37.7725 49.6781 37.9131 49.0312C38.0537 48.3844 38.3771 47.8078 38.8693 47.3016C39.3053 46.8656 39.7693 46.5422 40.2896 46.3313C40.81 46.1203 41.4006 46.0078 42.0615 46.0078C42.6381 46.0078 43.1584 46.0922 43.6365 46.2469C44.1146 46.4016 44.5506 46.6406 44.9162 46.9359C45.2959 47.2453 45.6193 47.6391 45.8725 48.1172C46.1396 48.5953 46.3084 49.1438 46.4068 49.7625H43.5381C43.4396 49.3828 43.2709 49.0875 43.0459 48.8625C42.8209 48.6375 42.4975 48.525 42.0615 48.525C41.8225 48.525 41.5975 48.5672 41.4146 48.6656C41.2178 48.75 41.0631 48.8766 40.9506 49.0172C40.8521 49.1437 40.7678 49.2984 40.7115 49.4672C40.6553 49.65 40.599 49.9172 40.5709 50.2688C40.5428 50.6344 40.5146 51.1547 40.5146 51.8578C40.5146 52.7859 40.5428 53.4469 40.6131 53.8266C40.6834 54.2063 40.7959 54.5016 40.9506 54.7125C41.2037 55.0359 41.5693 55.2047 42.0615 55.2047C42.4834 55.2047 42.8209 55.0922 43.0459 54.8672C43.2709 54.6422 43.4396 54.3469 43.5381 53.9672H46.4209Z" fill="white"/>
<path d="M55.4774 57.6236H47.6587V46.1064H55.4774V48.6236H50.4853V50.5502H54.7603V53.0674H50.4853V55.0924H55.4774V57.6236Z" fill="white"/>
<path d="M50.3163 42.8859H46.3366C46.1257 42.8859 45.9288 42.7875 45.8022 42.6328L31.9788 26.2359H22.2194V42.1688C22.2194 42.5625 21.9101 42.8719 21.5163 42.8719H18.8726C18.4788 42.8719 18.1694 42.5625 18.1694 42.1688C18.1694 41.775 18.4788 41.4656 18.8726 41.4656H20.8132V25.5469C20.8132 25.1531 21.1226 24.8438 21.5163 24.8438H32.3163C32.5272 24.8438 32.7241 24.9422 32.8507 25.0969L46.6741 41.4937H50.3163C50.7101 41.4937 51.0194 41.8031 51.0194 42.1969C51.0194 42.5906 50.7101 42.8859 50.3163 42.8859Z" fill="white"/>
<path d="M21.5303 1.12012C20.7006 1.12012 19.9834 1.64043 19.7021 2.37168H15.6521C15.2584 2.37168 14.949 2.68105 14.949 3.0748V18.9654H12.8678C12.5865 18.2342 11.8693 17.7139 11.0396 17.7139C9.95684 17.7139 9.08496 18.5857 9.08496 19.6686C9.08496 20.7514 9.95684 21.6232 11.0396 21.6232C11.8693 21.6232 12.5865 21.1029 12.8678 20.3717H15.6521C16.0459 20.3717 16.3553 20.0623 16.3553 19.6686V3.77793C16.3553 3.77793 19.6881 3.77793 19.7021 3.77793C19.9834 4.50918 20.7006 5.02949 21.5303 5.02949C22.6131 5.02949 23.485 4.15762 23.485 3.0748C23.485 1.99199 22.599 1.12012 21.5303 1.12012ZM11.0537 20.5123C10.5896 20.5123 10.224 20.1326 10.224 19.6826C10.224 19.2326 10.6037 18.8529 11.0537 18.8529C11.5037 18.8529 11.8834 19.2326 11.8834 19.6826C11.8834 20.1326 11.5037 20.5123 11.0537 20.5123ZM21.5303 3.91855C21.0662 3.91855 20.7006 3.53887 20.7006 3.08887C20.7006 2.63887 21.0803 2.25918 21.5303 2.25918C21.9803 2.25918 22.36 2.63887 22.36 3.08887C22.36 3.53887 21.9803 3.91855 21.5303 3.91855Z" fill="white"/>
<path d="M16.2569 40.3553V25.5475C16.2569 25.1537 15.9476 24.8443 15.5538 24.8443H12.8819C12.6007 24.1131 11.8835 23.5928 11.0538 23.5928C9.971 23.5928 9.09912 24.4646 9.09912 25.5475C9.09912 26.6303 9.971 27.5021 11.0538 27.5021C11.8835 27.5021 12.6007 26.9818 12.8819 26.2506H14.8507V40.3553C14.1194 40.6365 13.5991 41.3537 13.5991 42.1834C13.5991 43.2662 14.471 44.1381 15.5538 44.1381C16.6366 44.1381 17.5085 43.2662 17.5085 42.1834C17.5085 41.3537 16.9882 40.6365 16.2569 40.3553ZM11.0538 26.3771C10.5897 26.3771 10.2241 25.9975 10.2241 25.5475C10.2241 25.0975 10.6038 24.7178 11.0538 24.7178C11.5038 24.7178 11.8835 25.0975 11.8835 25.5475C11.8835 25.9975 11.5038 26.3771 11.0538 26.3771ZM15.5538 43.0131C15.0897 43.0131 14.7241 42.6334 14.7241 42.1834C14.7241 41.7334 15.1038 41.3537 15.5538 41.3537C16.0179 41.3537 16.3835 41.7334 16.3835 42.1834C16.3835 42.6334 16.0179 43.0131 15.5538 43.0131Z" fill="white"/>
<path d="M53.2412 1.12012C52.4396 1.12012 51.7365 1.6123 51.4412 2.30137H46.3506C46.1396 2.30137 45.9428 2.39981 45.8162 2.55449L32.1053 18.9654H22.2334V6.59043C22.2334 6.19668 21.924 5.8873 21.5303 5.8873C21.1365 5.8873 20.8271 6.19668 20.8271 6.59043V19.6686C20.8271 20.0623 21.1365 20.3717 21.5303 20.3717H32.4287C32.6396 20.3717 32.8365 20.2732 32.9631 20.1186L46.674 3.70762H51.385C51.6521 4.48105 52.3834 5.02949 53.2412 5.02949C54.324 5.02949 55.1959 4.15762 55.1959 3.0748C55.1959 1.99199 54.31 1.12012 53.2412 1.12012ZM53.2412 3.91855C52.7771 3.91855 52.4115 3.53887 52.4115 3.08887C52.4115 2.63887 52.7912 2.25918 53.2412 2.25918C53.7053 2.25918 54.0709 2.63887 54.0709 3.08887C54.0709 3.53887 53.6912 3.91855 53.2412 3.91855Z" fill="white"/>
<path d="M53.6633 39.932C53.4523 39.932 53.2555 39.9602 53.0727 40.0305L38.5039 22.6211L52.032 6.56171C52.2852 6.2664 52.243 5.8164 51.9477 5.57734C51.6523 5.32421 51.2023 5.3664 50.9633 5.66171C50.9633 5.66171 49.4867 7.41953 47.4898 9.78203C43.3695 14.6758 37.0555 22.1711 37.0555 22.1711C36.8305 22.4383 36.8305 22.818 37.0555 23.0711L51.9758 40.9023C51.807 41.1977 51.7086 41.5352 51.7086 41.8867C51.7086 42.9695 52.5805 43.8414 53.6633 43.8414C54.7461 43.8414 55.618 42.9695 55.618 41.8867C55.618 40.8039 54.732 39.932 53.6633 39.932ZM53.6633 42.7305C53.1992 42.7305 52.8336 42.3508 52.8336 41.9008C52.8336 41.4508 53.2133 41.0711 53.6633 41.0711C54.1273 41.0711 54.493 41.4508 54.493 41.9008C54.493 42.3508 54.1133 42.7305 53.6633 42.7305Z" fill="white"/>
</svg>
